<?xml version="1.0" encoding="UTF-8"?>
<svg id="Layer_1" xmlns="http://www.w3.org/2000/svg" version="1.1" viewBox="0 0 1024 180">
  <!-- Generator: Adobe Illustrator 29.1.0, SVG Export Plug-In . SVG Version: 2.1.0 Build 142)  -->
  <path d="M172.5,136.4c-7-7-10.4-17.3-10.4-30.9v-12c0-13.6,3.5-23.8,10.4-30.9,7-7,17.3-10.5,31.1-10.5h1.9c13.8,0,24.2,3.5,31.1,10.5,7,7,10.4,17.3,10.4,30.9v15.1h-61.2c.3,11.5,6.2,17.2,17.6,17.2h2.3c4.2,0,7.6-.7,10.2-2.2,2.6-1.4,4.5-3.7,5.8-6.7h24.5c-3.7,19.9-17.3,29.9-40.7,29.9h-1.9c-13.8,0-24.2-3.5-31.1-10.5ZM223.7,90.9c-.1-6-1.7-10.5-4.6-13.4-3-2.9-7.3-4.3-13.1-4.3h-2.4c-5.8,0-10.1,1.5-13,4.3-2.9,2.9-4.4,7.4-4.5,13.4h37.7Z" fill="#fff"/>
  <path d="M264.3,136.4c-7-7-10.4-17.3-10.4-30.9V20h24v29l-1,12.7c5.1-6.4,12.6-9.6,22.4-9.6h3.5c11.9,0,21.2,3.6,27.7,10.7,6.5,7.1,9.8,17.4,9.8,30.7v12c0,13.6-3.5,23.9-10.4,30.9-7,7-17.3,10.5-31.1,10.5h-3.3c-13.8,0-24.2-3.5-31.1-10.5ZM282.3,120.1c2.9,3.1,7.4,4.6,13.4,4.6h2.8c11.8,0,17.7-6.2,17.7-18.6v-13c0-12.3-5.9-18.4-17.7-18.4h-2.8c-6,0-10.5,1.5-13.4,4.5-2.9,3-4.3,7.7-4.3,13.9v13c0,6.3,1.4,10.9,4.3,14Z" fill="#fff"/>
  <path d="M356,136.4c-7-7-10.4-17.3-10.4-30.9v-12c0-13.6,3.5-23.8,10.4-30.9,7-7,17.3-10.5,31.1-10.5h1.9c13.8,0,24.2,3.5,31.1,10.5,7,7,10.4,17.3,10.4,30.9v15.1h-61.2c.3,11.5,6.2,17.2,17.6,17.2h2.3c4.2,0,7.6-.7,10.2-2.2,2.6-1.4,4.5-3.7,5.8-6.7h24.5c-3.7,19.9-17.3,29.9-40.7,29.9h-1.9c-13.8,0-24.2-3.5-31.1-10.5ZM407.1,90.9c-.1-6-1.7-10.5-4.6-13.4-3-2.9-7.3-4.3-13.1-4.3h-2.4c-5.8,0-10.1,1.5-13,4.3-2.9,2.9-4.4,7.4-4.5,13.4h37.7Z" fill="#fff"/>
  <path d="M477.3,52.2h3.7c26.7,0,40,13.4,40,40.3v51.8h-24v-51.5c0-11.7-5.6-17.6-16.9-17.6h-1.9c-11.2,0-16.9,5.9-16.9,17.6v51.5h-24v-51.8c0-26.9,13.3-40.3,40-40.3Z" fill="#fff"/>
  <path d="M44.3,47.5c10-7,20.9-12.5,33.5-13.8,4.5-.5,9.2-.6,13.5.4,12.5,2.9,24.3,7.7,34.7,15.3,11.2,8.2,17.5,19.3,18.3,33.1,1.2,21.8-4.3,41.8-18.2,58.8-14.1,17.4-32.5,22.6-53.9,16.1-15.9-4.8-30.7-12.1-43.3-23.3-5.8-5.1-10.6-11-13.7-18.2-4.8-11-3.8-21.9.7-32.7,6-14.6,15.7-26.2,28.5-35.6ZM62,52c-3.5,3.5-7.6,6.6-10.4,10.6-11.9,16.5-12.2,34.2-3.8,52.2,5.2,11,14,17.8,26.3,19.5,15.1,2.1,28.9-1.4,41.1-10.4,8.9-6.5,14.7-15.3,15.4-26.5,1.1-17.3-3.7-32.9-15.6-45.8-9.2-10-20.6-13.2-33.7-9-6.9,2.2-13,5.7-19.3,9.5Z" fill="#fff"/>
  <g>
    <path d="M627.2,56.2c10.8,0,19.5,3.2,26.1,9.7,6.6,6.5,9.9,15.1,9.9,25.7v52.7h-27.8v-53.4c0-3.7-1.1-6.8-3.3-9.1-2.2-2.4-5.1-3.6-8.7-3.6s-6.5,1.2-8.8,3.6c-2.3,2.4-3.4,5.4-3.4,9.1v53.4h-27.8v-53.4c0-3.7-1.1-6.8-3.3-9.1-2.2-2.4-5.1-3.6-8.7-3.6s-6.5,1.2-8.8,3.6c-2.3,2.4-3.4,5.4-3.4,9.1v53.4h-27.8v-52.7c0-10.5,3.3-19.1,10-25.6,6.7-6.5,15.4-9.8,26.2-9.8s23.1,4.5,29.7,13.6c6.6-9,16.6-13.6,29.9-13.6Z" fill="#fff"/>
    <path d="M766.7,101.6c0,1.9,0,3.7-.2,5.4h-64.3c.9,5.6,3,10,6.1,13.2,3.1,3.2,7.1,4.9,11.8,4.9s7.2-1,10.2-3c3-2,5.1-4.7,6.5-8.2h28.3c-2.6,9.4-8.1,17.1-16.5,23.1-8.5,6-18.1,9-28.9,9s-25-4.2-33.8-12.7c-8.9-8.5-13.3-19.2-13.3-32.3s4.4-23.7,13.3-32.2c8.9-8.5,20.1-12.7,33.8-12.7s24.9,4.3,33.7,12.8c8.8,8.5,13.2,19.4,13.2,32.6ZM720.6,77.2c-8.6,0-14.4,4.5-17.4,13.4h34.8c-1.2-4.2-3.3-7.4-6.4-9.8-3.1-2.4-6.8-3.6-11-3.6Z" fill="#fff"/>
    <path d="M837.1,23.1h27.6v77.9c0,13.1-4.4,23.9-13.1,32.3-8.8,8.5-20,12.7-33.6,12.7s-24.9-4.3-33.6-12.9c-8.7-8.6-13-19.7-13-33.4s3.7-23.1,11.2-31.3c7.5-8.2,16.8-12.3,27.9-12.3s20.8,4.1,26.6,12.3V23.1ZM817.4,124c5.9,0,10.7-2.1,14.3-6.3,3.6-4.2,5.4-9.8,5.4-16.6s-1.8-12.3-5.4-16.5c-3.6-4.2-8.3-6.3-14.3-6.3s-10.5,2.1-14,6.3c-3.5,4.2-5.3,9.7-5.3,16.4s1.8,12.4,5.3,16.6c3.5,4.2,8.2,6.3,14,6.3Z" fill="#fff"/>
    <path d="M907.5,57.9v86.4h-27.7v-68.8c.5-.3,1-.6,1.5-1,.9-.6,1.7-1.1,2.6-1.7.7-.5,1.4-1,2.1-1.4.5-.3.9-.6,1.4-.8.4-.3.8-.5,1.1-.8.4-.3.9-.6,1.3-.9.5-.3.9-.6,1.4-.9.4-.2.7-.5,1.1-.7.5-.3,1.1-.7,1.6-1,.5-.3,1-.6,1.5-.9.6-.4,1.2-.8,1.8-1.2.7-.4,1.3-.8,2-1.2.6-.4,1.1-.7,1.7-1.1.9-.6,1.7-1.1,2.6-1.7.6-.4,1.3-.8,1.9-1.2.6-.4,1.1-.7,1.7-1.1,0,0,0,0,0,0h.2Z" fill="#fff"/>
    <path d="M965.1,56.2c13.7,0,24.9,4.2,33.7,12.7,8.8,8.5,13.2,19.2,13.2,32.2v43.3h-27.8v-10.8c-5.7,8.3-14.5,12.5-26.6,12.5s-20.3-4.1-27.8-12.3c-7.5-8.2-11.3-18.7-11.3-31.3s4.4-24.7,13.1-33.3c8.8-8.6,19.9-13,33.5-13ZM952.1,116.1c3.5,3.9,8,5.8,13.5,5.8s9.9-2,13.4-5.9c3.5-3.9,5.2-8.9,5.2-15s-1.7-11-5.2-14.9c-3.5-3.9-7.9-5.8-13.4-5.8s-9.9,1.9-13.5,5.8c-3.5,3.9-5.3,8.8-5.3,14.9s1.8,11.2,5.3,15Z" fill="#fff"/>
    <path d="M913.6,45c-.2-.5-.5-.9-.9-1.1-.9-.6-1.8-1.1-2.7-1.7-.7-.5-1.4-1-2.1-1.4-.5-.3-1-.6-1.5-.9-.7-.5-1.4-.9-2.1-1.4-.4-.3-.9-.6-1.4-.9-.4-.3-.9-.6-1.3-.9-.4-.2-.7-.5-1.1-.7-.5-.3-1-.7-1.5-1s-1-.6-1.6-1c-.7-.4-1.4-.9-2.1-1.4-.3-.2-.6-.4-.9-.6-.5-.3-1-.6-1.4-.9-.4-.3-.8-.6-1.2-.8-.4-.3-.8-.5-1.2-.8-.5-.3-1-.6-1.4-1-.1,0-.2-.1-.4-.2-.7-.4-1.4-.9-2.1-1.3-.6-.4-1.3-.8-1.9-1.2-.6-.3-1.1-.7-1.6-1-.7-.5-1.4-1-2.1-1.4-.5-.3-1-.6-1.6-1-.5-.3-1.1-.7-1.6-1-.7-.5-1.4-.6-2.2-.4-.6.1-1.1.4-1.5.9-.7.7-.9,1.7-.9,2.7,0,14.7,0,29.3,0,44,0,.8.2,1.4.5,2.1.2.3.5.6.8.9.9.8,2,.8,3,.4.4-.2.8-.5,1.2-.8.2,0,.3-.2.5-.3.2-.1.3-.2.5-.3.5-.3,1-.6,1.5-1,.9-.6,1.7-1.1,2.6-1.7.7-.5,1.4-1,2.1-1.4.5-.3.9-.6,1.4-.8.4-.3.8-.5,1.1-.8.4-.3.9-.6,1.3-.9.5-.3.9-.6,1.4-.9.4-.2.7-.5,1.1-.7.5-.3,1.1-.7,1.6-1,.5-.3,1-.6,1.5-.9.6-.4,1.2-.8,1.8-1.2.7-.4,1.3-.8,2-1.2.6-.4,1.1-.7,1.7-1.1.9-.6,1.7-1.1,2.6-1.7.6-.4,1.3-.8,1.9-1.2.6-.4,1.1-.7,1.7-1.1,0,0,0,0,0,0,.7-.4,1.4-.9,2.1-1.4.4-.3,1-.5,1.4-.9.8-.6,1.8-.9,2.5-1.8.2-.2.3-.5.5-.7.1-.3.3-.7.4-1v-1c-.1-.4-.3-.8-.4-1.2Z" fill="#fff"/>
  </g>
</svg>