<?xml version="1.0" encoding="utf-8"?>
<!-- Generator: Adobe Illustrator 23.0.0, SVG Export Plug-In . SVG Version: 6.00 Build 0)  -->
<svg version="1.1" id="Layer_1" xmlns="http://www.w3.org/2000/svg"
    xmlns:xlink="http://www.w3.org/1999/xlink" x="0px" y="0px"
    viewBox="0 0 620 250" enable-background="new 0 0 620 250" xml:space="preserve">
<g>
	<g>
		<g>
			<radialGradient id="SVGID_1_" cx="75.552" cy="125" r="86.1454" gradientUnits="userSpaceOnUse">
				<stop  offset="0" style="stop-color:#CCE0F4"/>
				<stop  offset="6.405089e-02" style="stop-color:#C3DCF2"/>
				<stop  offset="0.1706" style="stop-color:#A9D2EE"/>
				<stop  offset="0.3066" style="stop-color:#80C2E7"/>
				<stop  offset="0.4649" style="stop-color:#47ACDE"/>
				<stop  offset="0.5674" style="stop-color:#1E9CD7"/>
				<stop  offset="0.8652" style="stop-color:#0075BE"/>
				<stop  offset="0.9944" style="stop-color:#005B97"/>
			</radialGradient>
			<path fill="url(#SVGID_1_)" d="M36.6,125c0-55.8,42.7-101.6,97.3-106.5c-3.2-0.3-6.4-0.5-9.7-0.5c-59.1,0-107,47.9-107,106.9
				c0,59.1,47.9,107,107,107c3.3,0,6.5-0.2,9.7-0.5C79.4,226.6,36.6,180.8,36.6,125z"/>
		</g>
		<path fill="#4EC4E3" d="M145.2,167.9c-24.6,0-44.4-20.7-42.9-45.7c1.4-22.1,19.9-39.8,42-40.2c8.5-0.2,16.5,2.2,23.3,6.3
			c11,6.7,25.1,5.3,34.2-3.8h0c12.5-12.5,10.3-33.4-4.7-42.8C181.5,32,162.9,26.5,143,26.9C90.5,28,47.8,71.1,47,123.5
			c-0.8,54.9,43.4,99.6,98.1,99.6c31.2,0,59-14.6,77-37.3l-0.7-0.7c-17.4-17.4-42.6-23.8-66.6-18.3
			C151.8,167.6,148.5,167.9,145.2,167.9z"/>
		<path fill="#4EC4E3" d="M197.1,41.7C181.5,32,162.9,26.5,143,26.9C102.2,27.8,67.3,54,53.5,90.2c22.9,97,101.4,76.6,101.4,76.6
			c-3.1,0.7-6.4,1.1-9.7,1.1c-24.6,0-44.4-20.7-42.9-45.7c1.4-22.1,19.9-39.8,42-40.2c8.5-0.2,16.5,2.2,23.3,6.3
			c11,6.7,25.1,5.3,34.2-3.8l0,0C214.3,72.1,212.1,51.1,197.1,41.7z"/>
	</g>
	<path fill="#259EC0" stroke="#259EC0" stroke-width="5" stroke-miterlimit="10" d="M250.3,105.6c-1.9-1.5-4.6-2.2-8.2-2.2
		c-4.6,0-8.5,2.2-11.6,6.5c-3.1,4.4-4.6,10.3-4.6,17.8v34.4h-10.8V94.6h10.8v13.9h0.3c1.5-4.7,3.9-8.5,7.1-11.1
		c3.2-2.7,6.7-4,10.6-4c2.8,0,5,0.3,6.5,0.9V105.6z"/>
	<path fill="#259EC0" stroke="#259EC0" stroke-width="5" stroke-miterlimit="10" d="M316.3,131.1h-47.7c0.2,7.5,2.2,13.3,6.1,17.4
		c3.9,4.1,9.2,6.1,16,6.1c7.6,0,14.6-2.5,21-7.5v10.2c-5.9,4.3-13.8,6.5-23.5,6.5c-9.5,0-17-3.1-22.5-9.2
		c-5.5-6.1-8.2-14.8-8.2-25.9c0-10.5,3-19.1,8.9-25.7c6-6.6,13.4-9.9,22.2-9.9c8.8,0,15.7,2.9,20.5,8.6c4.8,5.7,7.3,13.7,7.3,23.8
		V131.1z M305.2,121.9c0-6.2-1.5-11.1-4.5-14.6c-3-3.5-7.1-5.2-12.4-5.2c-5.1,0-9.4,1.8-13,5.5s-5.8,8.4-6.6,14.3H305.2z"/>
	<path fill="#259EC0" stroke="#259EC0" stroke-width="5" stroke-miterlimit="10" d="M360.9,163.7c-10,0-18-3.2-23.9-9.5
		c-6-6.3-8.9-14.7-8.9-25.1c0-11.3,3.1-20.2,9.3-26.6c6.2-6.4,14.6-9.6,25.1-9.6c10.1,0,17.9,3.1,23.6,9.3
		c5.6,6.2,8.5,14.8,8.5,25.8c0,10.8-3,19.4-9.1,25.9S371.1,163.7,360.9,163.7z M361.7,102.1c-6.9,0-12.4,2.4-16.5,7.1
		c-4,4.7-6.1,11.2-6.1,19.6c0,8,2,14.3,6.1,18.9c4.1,4.6,9.6,6.9,16.4,6.9c7,0,12.4-2.3,16.1-6.8c3.8-4.5,5.6-11,5.6-19.3
		c0-8.4-1.9-14.9-5.6-19.5C374,104.4,368.7,102.1,361.7,102.1z"/>
	<path fill="#259EC0" stroke="#259EC0" stroke-width="5" stroke-miterlimit="10" d="M422.9,152.4h-0.3v40.8h-10.8V94.6h10.8v11.9
		h0.3c5.3-9,13.1-13.5,23.3-13.5c8.7,0,15.5,3,20.4,9.1c4.9,6,7.3,14.1,7.3,24.3c0,11.3-2.7,20.3-8.2,27.1s-13,10.2-22.6,10.2
		C434.4,163.7,427.6,159.9,422.9,152.4z M422.6,125.1v9.4c0,5.6,1.8,10.3,5.4,14.2c3.6,3.9,8.2,5.8,13.8,5.8
		c6.6,0,11.7-2.5,15.4-7.5c3.7-5,5.6-12,5.6-20.9c0-7.5-1.7-13.4-5.2-17.7c-3.5-4.3-8.2-6.4-14.1-6.4c-6.3,0-11.3,2.2-15.2,6.6
		C424.5,113.1,422.6,118.6,422.6,125.1z"/>
	<path fill="#259EC0" stroke="#259EC0" stroke-width="5" stroke-miterlimit="10" d="M487.1,159.7v-11.6c5.9,4.4,12.4,6.5,19.5,6.5
		c9.5,0,14.2-3.2,14.2-9.5c0-1.8-0.4-3.3-1.2-4.6c-0.8-1.3-1.9-2.4-3.3-3.3c-1.4-1-3-1.8-4.9-2.6c-1.9-0.8-3.9-1.6-6-2.4
		c-3-1.2-5.6-2.4-7.9-3.6c-2.3-1.2-4.2-2.6-5.7-4.1s-2.7-3.2-3.4-5.2c-0.8-1.9-1.2-4.2-1.2-6.8c0-3.2,0.7-6,2.2-8.4
		c1.5-2.4,3.4-4.5,5.8-6.1c2.4-1.6,5.2-2.9,8.3-3.7c3.1-0.8,6.3-1.3,9.6-1.3c5.8,0,11.1,1,15.7,3V107c-5-3.3-10.7-4.9-17.1-4.9
		c-2,0-3.8,0.2-5.5,0.7c-1.6,0.5-3,1.1-4.2,1.9c-1.2,0.8-2.1,1.8-2.7,3s-1,2.5-1,3.9c0,1.8,0.3,3.2,1,4.4c0.6,1.2,1.6,2.2,2.8,3.2
		c1.2,0.9,2.7,1.8,4.5,2.5c1.8,0.7,3.8,1.6,6,2.4c3,1.1,5.7,2.3,8,3.5c2.4,1.2,4.4,2.6,6.1,4.1c1.7,1.5,3,3.3,3.9,5.2
		c0.9,2,1.4,4.3,1.4,7.1c0,3.3-0.7,6.2-2.2,8.7c-1.5,2.5-3.4,4.5-5.9,6.1c-2.5,1.6-5.3,2.8-8.5,3.6c-3.2,0.8-6.6,1.2-10.1,1.2
		C498.2,163.7,492.2,162.4,487.1,159.7z"/>
	<path fill="#259EC0" stroke="#259EC0" stroke-width="5" stroke-miterlimit="10" d="M602.8,131.1h-47.7c0.2,7.5,2.2,13.3,6.1,17.4
		c3.9,4.1,9.2,6.1,16,6.1c7.6,0,14.6-2.5,21-7.5v10.2c-5.9,4.3-13.8,6.5-23.5,6.5c-9.5,0-17-3.1-22.5-9.2
		c-5.5-6.1-8.2-14.8-8.2-25.9c0-10.5,3-19.1,8.9-25.7c6-6.6,13.4-9.9,22.2-9.9c8.8,0,15.7,2.9,20.5,8.6c4.8,5.7,7.3,13.7,7.3,23.8
		V131.1z M591.7,121.9c0-6.2-1.5-11.1-4.5-14.6c-3-3.5-7.1-5.2-12.4-5.2c-5.1,0-9.4,1.8-13,5.5s-5.8,8.4-6.6,14.3H591.7z"/>
</g>
</svg>