<?xml version="1.0" encoding="utf-8"?>
<!-- Generator: Adobe Illustrator 23.0.0, SVG Export Plug-In . SVG Version: 6.00 Build 0)  -->
<svg version="1.1" id="Layer_1" xmlns="http://www.w3.org/2000/svg"
	xmlns:xlink="http://www.w3.org/1999/xlink" x="0px" y="0px"
	viewBox="0 0 512 512" enable-background="new 0 0 512 512" xml:space="preserve">
<g>
	<g>
		<radialGradient id="SVGID_1_" cx="160.3891" cy="256" r="186.5722" gradientUnits="userSpaceOnUse">
			<stop  offset="0" style="stop-color:#CCE0F4"/>
			<stop  offset="6.405089e-02" style="stop-color:#C3DCF2"/>
			<stop  offset="0.1706" style="stop-color:#A9D2EE"/>
			<stop  offset="0.3066" style="stop-color:#80C2E7"/>
			<stop  offset="0.4649" style="stop-color:#47ACDE"/>
			<stop  offset="0.5674" style="stop-color:#1E9CD7"/>
			<stop  offset="0.8652" style="stop-color:#0075BE"/>
			<stop  offset="0.9944" style="stop-color:#005B97"/>
		</radialGradient>
		<path fill="url(#SVGID_1_)" d="M76.1,256c0-120.8,92.6-220,210.7-230.6c-6.9-0.6-14-1-21.1-1C137.7,24.4,34,128.1,34,256
			c0,127.9,103.7,231.6,231.7,231.6c7.1,0,14.1-0.4,21.1-1C168.6,476,76.1,376.9,76.1,256z"/>
	</g>
	<path fill="#4EC4E3" d="M311.2,349c-53.3,0-96.2-44.9-92.8-98.9c2.9-47.9,43-86.1,91-87.1c18.5-0.4,35.8,4.7,50.4,13.6
		c23.8,14.6,54.4,11.5,74.1-8.3h0c27-27,22.3-72.4-10.1-92.7c-33.9-21.2-74.2-33.1-117.3-32.2C192.8,46,100.3,139.2,98.7,252.8
		c-1.7,118.8,94.1,215.7,212.5,215.7c67.6,0,127.9-31.6,166.8-80.8l-1.5-1.5c-37.7-37.7-92.3-51.6-144.3-39.6
		C325.4,348.2,318.4,349,311.2,349z"/>
	<path fill="#4EC4E3" d="M423.7,75.7c-33.9-21.2-74.2-33.1-117.3-32.2c-88.3,1.9-163.8,58.6-193.9,137.1
		c49.6,210.1,219.6,165.9,219.6,165.9c-6.8,1.6-13.8,2.4-21,2.4c-53.3,0-96.2-44.9-92.8-98.9c2.9-47.9,43-86.1,91-87.1
		c18.5-0.4,35.8,4.7,50.4,13.6c23.8,14.6,54.4,11.5,74.1-8.3l0,0C460.9,141.4,456.1,96,423.7,75.7z"/>
</g>
</svg>